<?xml version="1.0" encoding="UTF-8"?>
<svg width="600" height="400" xmlns="http://www.w3.org/2000/svg">
    <!-- Title -->
    <text x="300" y="30" text-anchor="middle" fill="#224466" font-size="20" font-weight="bold">
        Search Problem: Finding Path Between Cities
    </text>
    
    <!-- Background -->
    <rect x="50" y="60" width="500" height="300" fill="#f6f8fa" stroke="#ddd" stroke-width="1" rx="5" ry="5"/>

    <!-- Cities -->
    <!-- Row 1 -->
    <circle cx="100" cy="100" r="22" fill="#f0f0f0" stroke="#224466" stroke-width="2"/>
    <text x="100" y="100" text-anchor="middle" fill="#333" font-size="16" font-weight="bold">A</text>
    
    <circle cx="225" cy="100" r="22" fill="#f0f0f0" stroke="#224466" stroke-width="2"/>
    <text x="225" y="100" text-anchor="middle" fill="#333" font-size="16" font-weight="bold">B</text>
    
    <circle cx="350" cy="100" r="22" fill="#f0f0f0" stroke="#224466" stroke-width="2"/>
    <text x="350" y="100" text-anchor="middle" fill="#333" font-size="16" font-weight="bold">C</text>
    
    <circle cx="500" cy="100" r="22" fill="#f0f0f0" stroke="#224466" stroke-width="2"/>
    <text x="500" y="100" text-anchor="middle" fill="#333" font-size="16" font-weight="bold">D</text>
    
    <!-- Row 2 -->
    <circle cx="175" cy="175" r="22" fill="#f0f0f0" stroke="#224466" stroke-width="2"/>
    <text x="175" y="175" text-anchor="middle" fill="#333" font-size="16" font-weight="bold">E</text>
    
    <circle cx="300" cy="175" r="22" fill="#f0f0f0" stroke="#224466" stroke-width="2"/>
    <text x="300" y="175" text-anchor="middle" fill="#333" font-size="16" font-weight="bold">F</text>
    
    <circle cx="425" cy="175" r="22" fill="#f0f0f0" stroke="#224466" stroke-width="2"/>
    <text x="425" y="175" text-anchor="middle" fill="#333" font-size="16" font-weight="bold">G</text>
    
    <!-- Row 3 -->
    <circle cx="100" cy="250" r="22" fill="#f0f0f0" stroke="#224466" stroke-width="2"/>
    <text x="100" y="250" text-anchor="middle" fill="#333" font-size="16" font-weight="bold">H</text>
    
    <circle cx="225" cy="250" r="22" fill="#f0f0f0" stroke="#224466" stroke-width="2"/>
    <text x="225" y="250" text-anchor="middle" fill="#333" font-size="16" font-weight="bold">I</text>
    
    <circle cx="350" cy="250" r="22" fill="#f0f0f0" stroke="#224466" stroke-width="2"/>
    <text x="350" y="250" text-anchor="middle" fill="#333" font-size="16" font-weight="bold">J</text>
    
    <!-- Row 4 -->
    <circle cx="175" cy="325" r="22" fill="#f0f0f0" stroke="#224466" stroke-width="2"/>
    <text x="175" y="325" text-anchor="middle" fill="#333" font-size="16" font-weight="bold">K</text>
    
    <circle cx="300" cy="325" r="22" fill="#f0f0f0" stroke="#224466" stroke-width="2"/>
    <text x="300" y="325" text-anchor="middle" fill="#333" font-size="16" font-weight="bold">L</text>
    
    <circle cx="425" cy="325" r="22" fill="#f0f0f0" stroke="#224466" stroke-width="2"/>
    <text x="425" y="325" text-anchor="middle" fill="#333" font-size="16" font-weight="bold">M</text>
    
    <!-- Roads (connections) -->
    <!-- Row 1 connections -->
    <line x1="122" y1="100" x2="203" y2="100" stroke="#888" stroke-width="2"/>
    <text x="160" y="90" text-anchor="middle" fill="#d24939" font-size="12" font-weight="bold">75</text>
    
    <line x1="247" y1="100" x2="328" y2="100" stroke="#888" stroke-width="2"/>
    <text x="290" y="90" text-anchor="middle" fill="#d24939" font-size="12" font-weight="bold">118</text>
    
    <line x1="372" y1="100" x2="478" y2="100" stroke="#888" stroke-width="2"/>
    <text x="425" y="90" text-anchor="middle" fill="#d24939" font-size="12" font-weight="bold">140</text>
    
    <!-- Row 1 to Row 2 connections -->
    <line x1="100" y1="122" x2="165" y2="158" stroke="#888" stroke-width="2"/>
    <text x="115" y="145" text-anchor="middle" fill="#d24939" font-size="12" font-weight="bold">71</text>
    
    <line x1="225" y1="122" x2="175" y2="158" stroke="#888" stroke-width="2"/>
    <text x="180" y="145" text-anchor="middle" fill="#d24939" font-size="12" font-weight="bold">151</text>
    
    <line x1="225" y1="122" x2="290" y2="158" stroke="#888" stroke-width="2"/>
    <text x="275" y="145" text-anchor="middle" fill="#d24939" font-size="12" font-weight="bold">99</text>
    
    <line x1="350" y1="122" x2="288" y2="160" stroke="#888" stroke-width="2"/>
    <text x="330" y="145" text-anchor="middle" fill="#d24939" font-size="12" font-weight="bold">80</text>
    
    <line x1="350" y1="122" x2="413" y2="158" stroke="#888" stroke-width="2"/>
    <text x="400" y="145" text-anchor="middle" fill="#d24939" font-size="12" font-weight="bold">97</text>
    
    <line x1="500" y1="122" x2="437" y2="160" stroke="#888" stroke-width="2"/>
    <text x="480" y="145" text-anchor="middle" fill="#d24939" font-size="12" font-weight="bold">138</text>
    
    <!-- Row 2 connections -->
    <line x1="197" y1="175" x2="278" y2="175" stroke="#888" stroke-width="2"/>
    <text x="240" y="165" text-anchor="middle" fill="#d24939" font-size="12" font-weight="bold">101</text>
    
    <line x1="322" y1="175" x2="403" y2="175" stroke="#888" stroke-width="2"/>
    <text x="360" y="165" text-anchor="middle" fill="#d24939" font-size="12" font-weight="bold">111</text>
    
    <!-- Row 2 to Row 3 connections -->
    <line x1="165" y1="195" x2="110" y2="233" stroke="#888" stroke-width="2"/>
    <text x="115" y="220" text-anchor="middle" fill="#d24939" font-size="12" font-weight="bold">70</text>
    
    <line x1="185" y1="195" x2="215" y2="233" stroke="#888" stroke-width="2"/>
    <text x="185" y="220" text-anchor="middle" fill="#d24939" font-size="12" font-weight="bold">90</text>
    
    <line x1="290" y1="195" x2="235" y2="233" stroke="#888" stroke-width="2"/>
    <text x="275" y="220" text-anchor="middle" fill="#d24939" font-size="12" font-weight="bold">85</text>
    
    <line x1="310" y1="195" x2="338" y2="233" stroke="#888" stroke-width="2"/>
    <text x="340" y="220" text-anchor="middle" fill="#d24939" font-size="12" font-weight="bold">79</text>
    
    <line x1="415" y1="195" x2="360" y2="233" stroke="#888" stroke-width="2"/>
    <text x="400" y="220" text-anchor="middle" fill="#d24939" font-size="12" font-weight="bold">120</text>
    
    <!-- Row 3 connections -->
    <line x1="122" y1="250" x2="203" y2="250" stroke="#888" stroke-width="2"/>
    <text x="160" y="240" text-anchor="middle" fill="#d24939" font-size="12" font-weight="bold">86</text>
    
    <line x1="247" y1="250" x2="328" y2="250" stroke="#888" stroke-width="2"/>
    <text x="290" y="240" text-anchor="middle" fill="#d24939" font-size="12" font-weight="bold">98</text>
    
    <!-- Row 3 to Row 4 connections -->
    <line x1="110" y1="270" x2="163" y2="308" stroke="#888" stroke-width="2"/>
    <text x="120" y="295" text-anchor="middle" fill="#d24939" font-size="12" font-weight="bold">75</text>
    
    <line x1="235" y1="270" x2="288" y2="308" stroke="#888" stroke-width="2"/>
    <text x="285" y="295" text-anchor="middle" fill="#d24939" font-size="12" font-weight="bold">91</text>
    
    <line x1="360" y1="270" x2="413" y2="308" stroke="#888" stroke-width="2"/>
    <text x="410" y="295" text-anchor="middle" fill="#d24939" font-size="12" font-weight="bold">72</text>
    
    <!-- Row 4 connections -->
    <line x1="197" y1="325" x2="278" y2="325" stroke="#888" stroke-width="2"/>
    <text x="235" y="315" text-anchor="middle" fill="#d24939" font-size="12" font-weight="bold">113</text>
    
    <line x1="322" y1="325" x2="403" y2="325" stroke="#888" stroke-width="2"/>
    <text x="360" y="315" text-anchor="middle" fill="#d24939" font-size="12" font-weight="bold">108</text>
    
    <!-- Start and Goal -->
    <circle cx="100" cy="100" r="25" fill="#4a90e2" stroke="#224466" stroke-width="3"/>
    <text x="100" y="100" text-anchor="middle" fill="white" font-size="18" font-weight="bold">A</text>
    
    <circle cx="425" cy="325" r="25" fill="#f44336" stroke="#224466" stroke-width="3"/>
    <text x="425" y="325" text-anchor="middle" fill="white" font-size="18" font-weight="bold">M</text>
    
    <!-- Aerial distances (Manhattan heuristic) -->
    <text x="100" y="115" text-anchor="middle" fill="#9c27b0" font-size="14" font-weight="bold">450</text>
    <text x="225" y="115" text-anchor="middle" fill="#9c27b0" font-size="14" font-weight="bold">375</text>
    <text x="350" y="115" text-anchor="middle" fill="#9c27b0" font-size="14" font-weight="bold">290</text>
    <text x="500" y="115" text-anchor="middle" fill="#9c27b0" font-size="14" font-weight="bold">270</text>
    
    <text x="175" y="190" text-anchor="middle" fill="#9c27b0" font-size="14" font-weight="bold">330</text>
    <text x="300" y="190" text-anchor="middle" fill="#9c27b0" font-size="14" font-weight="bold">250</text>
    <text x="425" y="190" text-anchor="middle" fill="#9c27b0" font-size="14" font-weight="bold">150</text>
    
    <text x="100" y="265" text-anchor="middle" fill="#9c27b0" font-size="14" font-weight="bold">290</text>
    <text x="225" y="265" text-anchor="middle" fill="#9c27b0" font-size="14" font-weight="bold">200</text>
    <text x="350" y="265" text-anchor="middle" fill="#9c27b0" font-size="14" font-weight="bold">90</text>
    
    <text x="175" y="340" text-anchor="middle" fill="#9c27b0" font-size="14" font-weight="bold">210</text>
    <text x="300" y="340" text-anchor="middle" fill="#9c27b0" font-size="14" font-weight="bold">125</text>
    <text x="425" y="340" text-anchor="middle" fill="#9c27b0" font-size="14" font-weight="bold">0</text>
    
    <!-- Legend -->
    <rect x="50" y="370" width="500" height="30" fill="#f6f8fa" stroke="#ddd" stroke-width="1" rx="5" ry="5"/>
    
    <circle cx="60" cy="385" r="10" fill="#4a90e2" stroke="#224466" stroke-width="1"/>
    <text x="100" y="390" text-anchor="middle" fill="#224466" font-size="14" font-weight="bold">StartA</text>
    
    <circle cx="180" cy="385" r="10" fill="#f44336" stroke="#224466" stroke-width="1"/>
    <text x="220" y="390" text-anchor="middle" fill="#224466" font-size="14" font-weight="bold">Goal</text>
    
    <text x="320" y="390" text-anchor="middle" fill="#d24939" font-size="14" font-weight="bold">Road distance</text>
    
    <text x="470" y="390" text-anchor="middle" fill="#9c27b0" font-size="14" font-weight="bold">Aerial distance to goal</text>
</svg> 